<svg id="Layer_1" data-name="Layer 1" xmlns="http://www.w3.org/2000/svg" viewBox="0 0 108 108"><defs><style>.cls-1{fill:#d54033;}.cls-2{fill:#1c1c1a;}.cls-3{fill:#005f97;}</style></defs><title>DCS-icon-primary</title><rect class="cls-1" x="77.95" y="34.34" width="2.23" height="45.92"/><polygon class="cls-2" points="33.23 50.67 34.23 52.67 79.56 29.95 78.56 27.95 33.23 50.67"/><circle class="cls-2" cx="79.07" cy="28.96" r="2.66"/><polygon class="cls-3" points="28.52 55.62 29.52 53.62 71.5 74.66 70.51 76.66 28.52 55.62"/><ellipse class="cls-1" cx="79.07" cy="79.04" rx="2.66" ry="2.66"/><ellipse class="cls-3" cx="28.93" cy="54.5" rx="2.67" ry="2.66"/><path class="cls-2" d="M28.93,43.54a11,11,0,1,0,10.94,11A10.94,10.94,0,0,0,28.93,43.54Zm0,15.85a4.89,4.89,0,1,1,4.88-4.89A4.88,4.88,0,0,1,28.93,59.39Z"/><path class="cls-1" d="M79.07,18A11,11,0,1,0,90,29,11,11,0,0,0,79.07,18Zm0,15.83A4.88,4.88,0,1,1,83.94,29,4.87,4.87,0,0,1,79.07,33.83Z"/><path class="cls-3" d="M79.07,68.09A11,11,0,1,0,90,79,10.94,10.94,0,0,0,79.07,68.09Zm0,15.84A4.89,4.89,0,1,1,84,79,4.89,4.89,0,0,1,79.07,83.93Z"/></svg>